<?xml version="1.0" standalone="no"?><svg xmlns="http://www.w3.org/2000/svg" viewBox="0 0 1440 320"><path fill="#ff5500" fill-opacity="1" d="M0,64L18.5,85.3C36.9,107,74,149,111,154.7C147.7,160,185,128,222,144C258.5,160,295,224,332,261.3C369.2,299,406,309,443,309.3C480,309,517,299,554,282.7C590.8,267,628,245,665,218.7C701.5,192,738,160,775,176C812.3,192,849,256,886,250.7C923.1,245,960,171,997,133.3C1033.8,96,1071,96,1108,117.3C1144.6,139,1182,181,1218,176C1255.4,171,1292,117,1329,117.3C1366.2,117,1403,171,1422,197.3L1440,224L1440,0L1421.5,0C1403.1,0,1366,0,1329,0C1292.3,0,1255,0,1218,0C1181.5,0,1145,0,1108,0C1070.8,0,1034,0,997,0C960,0,923,0,886,0C849.2,0,812,0,775,0C738.5,0,702,0,665,0C627.7,0,591,0,554,0C516.9,0,480,0,443,0C406.2,0,369,0,332,0C295.4,0,258,0,222,0C184.6,0,148,0,111,0C73.8,0,37,0,18,0L0,0Z"></path></svg>